<svg width="142" height="50" viewBox="0 0 142 50" fill="none" xmlns="http://www.w3.org/2000/svg">
<g clip-path="url(#clip0_1235_26)">
<path d="M23.315 4.41998L1.22501 42.67C-0.65499 45.93 1.69501 50 5.45501 50H49.625C53.385 50 55.735 45.93 53.855 42.67L31.775 4.41998C29.895 1.15998 25.195 1.15998 23.315 4.41998Z" fill="#203B66"/>
<path d="M110.225 4.41998L88.145 42.67C86.265 45.93 88.615 50 92.375 50H136.545C140.305 50 142.655 45.93 140.775 42.67L118.685 4.41998C116.805 1.15998 112.105 1.15998 110.225 4.41998Z" fill="#203B66"/>
<path d="M75.225 45.58L97.315 7.33C99.195 4.07 96.845 0 93.085 0H48.915C45.155 0 42.805 4.07 44.685 7.33L66.765 45.58C68.645 48.84 73.345 48.84 75.225 45.58Z" fill="#203B66"/>
</g>
<defs>
<clipPath id="clip0_1235_26">
<rect width="140.87" height="50" fill="white" transform="translate(0.565002)"/>
</clipPath>
</defs>
</svg>
